<svg xmlns="http://www.w3.org/2000/svg" width="67.23" height="72" viewBox="0 0 22.41 24">
  <defs>
    <style>
      .cls-1 {
        fill: #fff;
        fill-rule: evenodd;
      }
    </style>
  </defs>
  <path id="Composite_Path" data-name="Composite Path" class="cls-1" d="M1505.9,70h-22.4l2.4-19.2h3.28a5.574,5.574,0,0,1,11.04,0h3.28Zm-11.2-22.4a3.985,3.985,0,0,0-3.9,3.2h7.8a3.985,3.985,0,0,0-3.9-3.2h0Zm-7.53,4.8-2.07,16h19.2l-2-16h-15.13Zm11.13,4a1.2,1.2,0,1,1,1.2-1.2,1.2,1.2,0,0,1-1.2,1.2h0Zm-7.2,0a1.2,1.2,0,1,1,1.2-1.2,1.2,1.2,0,0,1-1.2,1.2h0Zm0,0h0Z" transform="translate(-1483.5 -46)"/>
</svg>
