<svg xmlns="http://www.w3.org/2000/svg" width="129.18" height="59.813" viewBox="0 0 43.06 19.938">
  <defs>
    <style>
      .cls-1 {
        fill: #fff;
        fill-rule: evenodd;
      }
    </style>
  </defs>
  <path id="Composite_Path" data-name="Composite Path" class="cls-1" d="M1035.36,58.362c-0.71.346-1.43,0.488-2.14,0.765-0.8.314-1.61,0.6-2.41,0.873a4.126,4.126,0,0,1-1.38.405,0.271,0.271,0,0,0-.14.063,0.843,0.843,0,0,1-.84.108,1.574,1.574,0,0,0-1.2.1c-1.11.387-2.21,0.914-3.3,1.355q-2.25.906-4.45,2.038c-1.29.665-2.57,1.33-3.84,2.086-1.18.708-2.35,1.447-3.51,2.182-1.08.677-2.14,1.4-3.2,2.083-0.6.387-1.2,0.746-1.8,1.123-0.27.17-.28,0.272-0.07,0.5a1.633,1.633,0,0,0,.3.294,1.924,1.924,0,0,0,1.31.537,1.209,1.209,0,0,1,.94.027,0.45,0.45,0,0,0,.39-0.048,2.06,2.06,0,0,1,.58-0.157,3.181,3.181,0,0,0,1.73-.634,1.223,1.223,0,0,1,.66-0.286,2.209,2.209,0,0,0,.98-0.36c0.79-.387,1.49-1.132,2.3-1.47,0.45-.187.86-0.607,1.33-0.782a2.259,2.259,0,0,0,.7-0.464c0.23-.234.42-0.624,0.73-0.4a0.3,0.3,0,0,0,.21-0.133,1.09,1.09,0,0,1,.58-0.307,3.822,3.822,0,0,0,1.39-.817,5.263,5.263,0,0,1,1.24-.8c0.24-.115.39,0.129,0.57,0.024a13.064,13.064,0,0,0,1.42-.688,0.529,0.529,0,0,1,.27-0.145,1.853,1.853,0,0,0,1.3-.65,0.558,0.558,0,0,1,.6-0.174,0.617,0.617,0,0,0,.67-0.221,1.207,1.207,0,0,1,1.06-.427,0.466,0.466,0,0,0,.41-0.176,3.833,3.833,0,0,1,1.15-.694c0.82-.333,1.65-0.607,2.48-0.9a34.148,34.148,0,0,1,3.29-1.2,4.046,4.046,0,0,0,.73-0.279,1.634,1.634,0,0,0,.7-0.323c0.26-.373.42,0.05,0.61-0.186a0.623,0.623,0,0,1,.14-0.1c-0.15-.373-0.15-0.411.14-0.515a3.755,3.755,0,0,1,.73-0.3,0.313,0.313,0,0,0,.27-0.448,0.277,0.277,0,0,1,.19-0.294,3.466,3.466,0,0,0,1.29-.718,0.342,0.342,0,0,1,.34-0.059,0.253,0.253,0,0,0,.33-0.081,1.946,1.946,0,0,1,.91-0.517c0.33-.132.66-0.215,0.99-0.342,0.93-.355,1.84-0.963,2.78-1.282a1.189,1.189,0,0,0,.53-0.366,1.661,1.661,0,0,1,.52-0.41c0.94-.463,1.85-1.171,2.8-1.546A0.349,0.349,0,0,0,1050,53a28.37,28.37,0,0,0-2.79.874c-1.01.295-2.02,0.668-3.02,0.964-1.95.575-3.89,1.175-5.82,1.828-0.7.238-1.41,0.451-2.11,0.676a2.354,2.354,0,0,0-1.1.682l0.8-.123A1.165,1.165,0,0,1,1035.36,58.362Zm-0.79,1.626a0.323,0.323,0,0,1,.5.1,4.576,4.576,0,0,1-2.08.71C1033.51,60.526,1034.04,60.231,1034.57,59.988Zm-4.41,1.964a1.8,1.8,0,0,1,1.24-.582A3.858,3.858,0,0,1,1030.16,61.951Z" transform="translate(-1006.94 -53)"/>
</svg>
