<svg xmlns="http://www.w3.org/2000/svg" width="66" height="66" viewBox="0 0 22 22">
  <defs>
    <style>
      .cls-1 {
        fill: #fff;
        fill-rule: evenodd;
      }
    </style>
  </defs>
  <path id="Composite_Path" data-name="Composite Path" class="cls-1" d="M1543.44,63.815a13.933,13.933,0,0,0-3.44-2.073,18.482,18.482,0,0,1-2.65-1.479,9.285,9.285,0,0,0,2.3-5.592,8.828,8.828,0,0,0-.67-4.036c-0.61-1.2-1.96-2.635-4.98-2.635s-4.37,1.432-4.98,2.635a8.828,8.828,0,0,0-.67,4.036,9.285,9.285,0,0,0,2.3,5.592,18.336,18.336,0,0,1-2.65,1.479,13.905,13.905,0,0,0-3.44,2.073,6.784,6.784,0,0,0-1.56,4.325A1.838,1.838,0,0,0,1524.83,70h18.34a1.838,1.838,0,0,0,1.83-1.862,6.783,6.783,0,0,0-1.56-4.324h0Zm0.05,4.674a0.436,0.436,0,0,1-.32.137h-18.34a0.44,0.44,0,0,1-.32-0.137,0.457,0.457,0,0,1-.14-0.328,5.523,5.523,0,0,1,1.16-3.373,13.956,13.956,0,0,1,3.09-1.815,15.253,15.253,0,0,0,2.98-1.71l0.93-.877-0.81-.99a7.957,7.957,0,0,1-2-4.724,7.552,7.552,0,0,1,.53-3.416c0.63-1.248,1.89-1.881,3.75-1.881s3.12,0.633,3.75,1.88a7.558,7.558,0,0,1,.53,3.417,7.962,7.962,0,0,1-2,4.724l-0.81.991,0.93,0.877a15.061,15.061,0,0,0,2.98,1.709,13.92,13.92,0,0,1,3.09,1.815,5.3,5.3,0,0,1,1.15,3.373,0.412,0.412,0,0,1-.13.328h0Zm0,0h0Z" transform="translate(-1523 -48)"/>
</svg>
