<svg xmlns="http://www.w3.org/2000/svg" width="360" height="33.093" viewBox="0 0 120 11.031">
  <defs>
    <style>
      .cls-1 {
        fill: #f8af00;
        fill-rule: evenodd;
      }
    </style>
  </defs>
  <path id="Composite_Path" data-name="Composite Path" class="cls-1" d="M986.258,781.955c-2,.072-3.792-0.3-5.72-0.372-2.185-.084-4.344-0.226-6.485-0.4a11.364,11.364,0,0,1-3.633-.435,0.763,0.763,0,0,0-.394,0,2.247,2.247,0,0,1-2.063-.561,4.241,4.241,0,0,0-2.918-.917c-3-.219-6.113-0.122-9.15-0.211q-6.237-.183-12.63.172c-3.758.212-7.508,0.43-11.315,0.864-3.569.407-7.146,0.9-10.711,1.385-3.288.45-6.592,1.009-9.871,1.49-1.856.271-3.7,0.476-5.543,0.727-0.834.114-.971,0.323-0.7,1.018a4.193,4.193,0,0,0,.432.933c0.718,0.986,1.338,2.122,2.647,2.429,0.849,0.2,1.749.238,2.254,0.955a1.316,1.316,0,0,0,1.007.27,5.726,5.726,0,0,1,1.567.21,9.165,9.165,0,0,0,4.824.257,3.591,3.591,0,0,1,1.9.01,6.458,6.458,0,0,0,2.73.147c2.284-.1,4.741-1.046,7.02-1.016,1.26,0.017,2.684-.5,3.971-0.441a5.875,5.875,0,0,0,2.148-.343c0.807-.282,1.646-0.953,2.156-0.174a0.847,0.847,0,0,0,.644-0.087,3.073,3.073,0,0,1,1.693-.115,10.549,10.549,0,0,0,4.129-.458,14.7,14.7,0,0,1,3.77-.56c0.68-.024.784,0.644,1.327,0.594a37.448,37.448,0,0,0,4.049-.148,1.454,1.454,0,0,1,.787-0.056,5.2,5.2,0,0,0,3.727-.175,1.5,1.5,0,0,1,1.572.187,1.7,1.7,0,0,0,1.8.156c1.086-.29,2.157-0.514,2.906.074a1.271,1.271,0,0,0,1.141.008,10.9,10.9,0,0,1,3.4-.408c2.259,0.057,4.471.248,6.7,0.4,2.92,0.2,6,.041,8.808.512a10.192,10.192,0,0,0,1.962.082c0.676-.021,1.443.275,1.96-0.026,0.965-.562.9,0.491,1.583,0.168a1.679,1.679,0,0,1,.41-0.084c0.052-.932.1-1.009,0.867-0.963a9.692,9.692,0,0,1,1.984.034,0.8,0.8,0,0,0,1.079-.7,0.708,0.708,0,0,1,.746-0.445,9.53,9.53,0,0,0,3.685-.328,0.861,0.861,0,0,1,.827.188,0.644,0.644,0,0,0,.822.131,5.285,5.285,0,0,1,2.62-.249c0.88,0.028,1.72.159,2.6,0.2,2.47,0.109,5.16-.335,7.6-0.142a3.217,3.217,0,0,0,1.57-.283,4.44,4.44,0,0,1,1.6-.386c2.59-.11,5.36-0.766,7.89-0.673a0.906,0.906,0,0,0,.96-0.179c-2.25-.511-4.79-0.453-7.15-0.74-2.58-.314-5.24-0.462-7.81-0.769-5.01-.6-10.03-1.131-15.105-1.547-1.86-.152-3.693-0.358-5.537-0.537a6.335,6.335,0,0,0-3.24.423l1.973,0.491A3.211,3.211,0,0,1,986.258,781.955Zm-3.5,2.742a0.81,0.81,0,0,1,1.049.692,12.445,12.445,0,0,1-5.551-.438C979.761,784.858,981.282,784.719,982.761,784.7Zm-12.246.065a4.931,4.931,0,0,1,3.494-.077A10.7,10.7,0,0,1,970.515,784.762Z" transform="translate(-905 -779)"/>
</svg>
